<svg xmlns="http://www.w3.org/2000/svg" viewBox="0 0 64 64" width="64" height="64"><metadata><rdf:RDF xmlns:rdf="http://www.w3.org/1999/02/22-rdf-syntax-ns#" xmlns:dc="http://purl.org/dc/elements/1.1/"><rdf:Description><dc:creator>RealFaviconGenerator</dc:creator><dc:source>https://realfavicongenerator.net</dc:source></rdf:Description></rdf:RDF></metadata><rect width="64" height="64" fill="#ffffff"></rect><rect x="5" y="10" width="54" height="44" fill="none" stroke="#0a0a0a" stroke-width="0.5" opacity="0.09"></rect><line x1="5" y1="32" x2="59" y2="32" stroke="#0a0a0a" stroke-width="0.4" opacity="0.09"></line><circle cx="32" cy="32" r="8" fill="none" stroke="#0a0a0a" stroke-width="0.4" opacity="0.09"></circle><rect x="17" y="10" width="30" height="9" fill="none" stroke="#0a0a0a" stroke-width="0.4" opacity="0.07"></rect><rect x="17" y="45" width="30" height="9" fill="none" stroke="#0a0a0a" stroke-width="0.4" opacity="0.07"></rect><circle cx="20" cy="24" r="1.8" fill="#001F6B" opacity="0.5"></circle><circle cx="32" cy="21" r="1.8" fill="#001F6B" opacity="0.5"></circle><circle cx="44" cy="24" r="1.8" fill="#001F6B" opacity="0.5"></circle><circle cx="26" cy="32" r="1.8" fill="#001F6B" opacity="0.4"></circle><circle cx="38" cy="32" r="1.8" fill="#001F6B" opacity="0.4"></circle><circle cx="22" cy="40" r="1.8" fill="#FFD700" opacity="0.7"></circle><circle cx="32" cy="43" r="1.8" fill="#FFD700" opacity="0.7"></circle><circle cx="42" cy="40" r="1.8" fill="#FFD700" opacity="0.7"></circle><path d="M22 40 Q27 37 32 43" fill="none" stroke="#FFD700" stroke-width="0.7" opacity="0.5"></path><path d="M32 43 Q36 36 44 24" fill="none" stroke="#001F6B" stroke-width="0.6" opacity="0.35" stroke-dasharray="2 2"></path><text x="32" y="28" text-anchor="middle" font-family="Arial Black,Arial,sans-serif" font-size="16" font-weight="900" fill="#0a0a0a" letter-spacing="-0.5">PORRA</text><text x="32" y="41" text-anchor="middle" font-family="Arial Black,Arial,sans-serif" font-size="12" font-weight="900" fill="none" stroke="#0a0a0a" stroke-width="0.7" letter-spacing="1.5">UDLP</text><text x="32" y="52" text-anchor="middle" font-family="Arial,sans-serif" font-size="6.5" fill="#0a0a0a" opacity="0.3" letter-spacing="0.5">26 / 27</text></svg>